<?xml version="1.0" encoding="utf-8"?>
<!-- Generator: Adobe Illustrator 16.0.0, SVG Export Plug-In . SVG Version: 6.00 Build 0)  -->
<!DOCTYPE svg PUBLIC "-//W3C//DTD SVG 1.1//EN" "http://www.w3.org/Graphics/SVG/1.1/DTD/svg11.dtd">
<svg version="1.1" id="Layer_1" xmlns="http://www.w3.org/2000/svg" xmlns:xlink="http://www.w3.org/1999/xlink" x="0px" y="0px"
	 width="288px" height="288px" viewBox="0 0 288 288" enable-background="new 0 0 288 288" xml:space="preserve">
<g>
	<g>
		<path fill-rule="evenodd" clip-rule="evenodd" fill="#D61F4F" d="M194.777,162.026c0-2.977-0.026-5.755,0.004-8.533
			c0.194-17.253,0.392-34.506,0.608-51.759c0.141-11.143,0.344-22.284,0.465-33.426c0.05-4.586-1.598-6.638-6.113-7.57
			c-20.413-4.216-40.831-8.396-61.253-12.568c-3.222-0.658-5.244,1.186-5.24,4.78c0.022,17.841,0.08,35.681,0.105,53.521
			c0.015,10.738-0.008,21.476-0.007,32.213c0,2.221,0.011,4.44,0.054,6.66c0.153,7.757-3.845,13.411-9.636,17.803
			c-10.221,7.75-21.719,10.682-34.272,7.201c-14.169-3.93-18.075-17.264-8.675-28.548c9.238-11.091,29.347-16.822,43.128-9.863
			c0.348,0.176,0.726,0.291,1.648,0.653c0-3.517-0.033-6.686,0.006-9.853c0.147-11.804,0.31-23.608,0.483-35.412
			c0.261-17.745,0.531-35.489,0.812-53.233c0.055-3.417,2.104-4.938,5.662-4.202c12.666,2.62,25.331,5.252,37.993,7.899
			c12.095,2.529,24.192,5.055,36.276,7.64c4.271,0.913,5.996,3.055,6.062,7.43c0.038,2.554-0.201,5.111-0.203,7.667
			c-0.031,37.831-0.126,75.661,0.016,113.49c0.025,6.815-2.296,12.362-7.213,16.668c-11.46,10.036-24.63,13.661-39.239,8.344
			c-11.37-4.138-14.581-15.45-7.683-25.406c5.899-8.519,14.532-12.693,24.45-14.468c7.063-1.263,13.969-0.662,20.517,2.547
			C193.808,161.833,194.133,161.86,194.777,162.026z M154.077,47.261c-0.375,0.427-1.295,1.012-1.281,1.576
			c0.014,0.678,0.709,1.781,1.305,1.932c3.089,0.781,6.226,1.398,9.376,1.867c0.588,0.088,1.781-0.69,1.857-1.196
			c0.093-0.61-0.584-1.82-1.14-1.967C161.036,48.64,157.814,48.047,154.077,47.261z"/>
		<path fill-rule="evenodd" clip-rule="evenodd" fill="#D61F4F" d="M222.24,61.763c0.86-17.247-5.916-30.352-20.262-39.707
			C218.26,23.915,231.081,43.108,222.24,61.763z"/>
		<path fill-rule="evenodd" clip-rule="evenodd" fill="#D61F4F" d="M72.104,185.021c-14.722,0.373-26.152-14.064-22.077-28.337
			c1.007,6.785,3.333,12.487,7.323,17.476C61.298,179.097,66.306,182.567,72.104,185.021z"/>
		<path fill-rule="evenodd" clip-rule="evenodd" fill="#D61F4F" d="M197.218,29.851c14.278,2.074,22.805,18.063,16.429,31.134
			C213.97,47.356,208.54,37.144,197.218,29.851z"/>
		<path fill-rule="evenodd" clip-rule="evenodd" fill="#D61F4F" d="M57.002,155.579c2.04,10.956,7.849,18.202,18.07,22.418
			C63.478,178.189,54.354,167.885,57.002,155.579z"/>
	</g>
	<g>
		<path fill-rule="evenodd" clip-rule="evenodd" d="M122.486,224.405c0,9.532,0,19.066,0,28.727c-1.605,0-2.967,0-4.617,0
			c0-1.45,0-2.829,0-4.206c0-8.422-0.001-16.844,0.001-25.267c0-0.742-0.017-1.487,0.036-2.228c0.157-2.173,0.715-4.208,3.152-4.757
			c2.395-0.54,3.971,0.877,4.945,2.854c3.276,6.644,6.462,13.332,9.687,20.002c1.002,2.072,2.017,4.138,3.441,6.18
			c0-9.465,0-18.93,0-28.531c1.779,0,3.225,0,4.829,0c0.052,0.632,0.15,1.266,0.151,1.899c0.01,9.494,0.02,18.989-0.012,28.485
			c-0.004,1.141-0.094,2.324-0.41,3.411c-0.894,3.07-4.147,3.955-6.37,1.649c-1.055-1.095-1.803-2.547-2.478-3.939
			c-3.944-8.127-7.826-16.284-11.728-24.43C122.904,224.304,122.695,224.354,122.486,224.405z"/>
		<path fill-rule="evenodd" clip-rule="evenodd" d="M42.509,234.635c3.168,1.18,4.636,3.453,4.794,6.335
			c0.221,4.006,0.056,8.033,0.056,12.171c-1.585,0-3.038,0-4.821,0c0-2.794,0.011-5.569-0.002-8.346
			c-0.025-5.534-1.722-7.276-7.208-7.385c-1.626-0.032-3.255-0.005-4.998-0.005c0-1.566,0-2.842,0-4.459
			c1.563,0,3.021,0.027,4.478-0.005c4.379-0.099,7.073-2.32,7.16-5.875c0.076-3.082-2.423-5.743-5.698-6.069
			c-3.994-0.396-7.245,2.034-7.598,6.038c-0.304,3.44-0.244,6.916-0.269,10.377c-0.038,5.179-0.01,10.358-0.01,15.692
			c-1.616,0-2.985,0-4.391,0c-0.071-0.085-0.265-0.209-0.266-0.334c-0.017-8.496-0.229-16.998,0.062-25.482
			c0.16-4.642,2.492-8.504,7.099-10.097c4.503-1.556,8.997-1.191,12.745,2.188c4.55,4.104,4.479,10.113-0.056,14.261
			C43.288,233.913,42.992,234.188,42.509,234.635z"/>
		<path fill-rule="evenodd" clip-rule="evenodd" d="M99.42,247.445c0.245,5.247-0.881,6.276-6.541,6.292
			c-5.714,0.018-10.44-3.65-11.951-9.274c-1.599-5.95,0.833-12.202,5.833-14.999c4.882-2.731,11.395-1.772,15.267,2.256
			c2.279,2.372,3.381,5.244,3.419,8.501c0.049,4.211,0.103,8.426-0.007,12.636c-0.202,7.739-5.406,12.399-13.493,12.104
			c-2.261-0.083-4.499-0.79-7.008-1.259c0.309-1.633,0.561-2.965,0.839-4.438c1.791,0.396,3.441,0.814,5.111,1.12
			c5.849,1.072,9.955-2.238,10.05-8.14c0.061-3.8,0.052-7.6,0-11.397c-0.055-4.074-2.241-7.293-5.497-8.257
			c-3.34-0.988-6.765,0.168-8.787,2.964c-2.102,2.908-2.025,7.769,0.171,10.711c2.109,2.829,5.753,3.907,9.308,2.681
			C97.204,248.575,98.203,248.008,99.42,247.445z"/>
		<path fill-rule="evenodd" clip-rule="evenodd" d="M234.399,244.878c-0.681-1.259-1.222-2.259-1.896-3.506
			c3.948-2.236,7.791-4.413,11.644-6.595c-1.929-2.509-5.206-3.245-8.148-1.901c-3.45,1.578-5.348,5.587-4.625,9.768
			c0.61,3.527,3.698,6.46,7,6.649c4.609,0.266,6.956-1.706,8.8-7.621c1.438,0.2,2.932,0.409,4.446,0.621
			c-1.706,8.023-6.219,11.75-13.601,11.457c-5.729-0.228-10.744-5.163-11.528-11.344c-0.759-5.993,3.15-12.178,8.795-13.916
			c6.342-1.953,12.167,0.727,15.448,7.305C245.378,238.773,240.007,241.76,234.399,244.878z"/>
		<path fill-rule="evenodd" clip-rule="evenodd" d="M189.62,253.757c-7.022,0.035-12.65-5.564-12.718-12.652
			c-0.07-7.238,5.543-13.134,12.531-13.164c7.01-0.03,12.621,5.61,12.669,12.733C202.152,248.124,196.813,253.721,189.62,253.757z
			 M181.729,240.835c0.005,4.844,3.302,8.449,7.743,8.47c4.456,0.021,7.977-3.813,7.919-8.626c-0.056-4.707-3.545-8.373-7.946-8.351
			C185.019,232.351,181.724,235.983,181.729,240.835z"/>
		<path fill-rule="evenodd" clip-rule="evenodd" d="M180.391,217.213c0,1.35,0,2.638,0,4.243c-2.909,0-5.827,0-8.978,0
			c0,10.67,0,21.028,0,31.597c-1.735,0-3.236,0-4.98,0c0-10.369,0-20.732,0-31.351c-3.152,0-6.083,0-9.211,0
			c0-1.603,0-2.952,0-4.489C164.836,217.213,172.537,217.213,180.391,217.213z"/>
		<path fill-rule="evenodd" clip-rule="evenodd" d="M224.901,253.16c-1.573,0-2.864,0-4.509,0c0-4.302,0.029-8.558-0.018-12.812
			c-0.015-1.222-0.091-2.482-0.41-3.651c-0.737-2.683-2.958-4.301-5.631-4.312c-2.825-0.013-5.258,1.608-5.744,4.449
			c-0.466,2.73-0.388,5.562-0.459,8.353c-0.066,2.613-0.014,5.229-0.014,7.956c-1.569,0-2.862,0-4.769,0
			c0.292-5.976,0.128-12.001,1.009-17.87c0.756-5.032,5.902-7.877,11.34-7.286c5.16,0.561,8.665,4.499,9.16,10.312
			c0.055,0.656,0.042,1.319,0.042,1.978C224.903,244.474,224.901,248.67,224.901,253.16z"/>
		<path fill-rule="evenodd" clip-rule="evenodd" d="M269.846,228.452c0,1.422,0,2.551,0,4.176c-2.798,0-5.562-0.075-8.319,0.028
			c-1.619,0.061-3.892-0.659-4.427,1.581c-0.594,2.481,1.954,2.672,3.443,3.427c2.419,1.224,4.99,2.145,7.401,3.38
			c2.824,1.447,3.483,4.023,3.053,6.95c-0.403,2.736-2.277,4.367-4.79,4.651c-4.543,0.516-9.135,0.585-13.849,0.848
			c0-1.719,0-2.912,0-4.489c3.22,0,6.327,0.056,9.432-0.022c1.745-0.044,4.088,0.418,4.53-1.938c0.44-2.341-1.917-2.73-3.502-3.46
			c-2.093-0.964-4.285-1.726-6.333-2.769c-3.46-1.761-4.806-4.309-4.109-7.353c0.686-2.993,3.082-4.851,6.811-4.985
			C262.644,228.354,266.108,228.452,269.846,228.452z"/>
		<path fill-rule="evenodd" clip-rule="evenodd" d="M62.093,253.126c-1.586,0-2.861,0-4.111,0c0-5.8-0.463-11.513,0.133-17.112
			c0.568-5.335,5.386-8.403,11.038-8.062c5.096,0.31,9.196,4.116,9.477,9.37c0.276,5.177,0.061,10.379,0.061,15.754
			c-1.421,0-2.76,0-4.379,0c0-3.928,0.007-7.786-0.003-11.645c-0.003-1.238,0.05-2.488-0.096-3.712
			c-0.364-3.051-2.873-5.29-5.852-5.336c-3.162-0.049-5.803,2.111-6.008,5.354c-0.261,4.111-0.191,8.245-0.257,12.37
			C62.08,251.072,62.093,252.036,62.093,253.126z"/>
		<path fill-rule="evenodd" clip-rule="evenodd" d="M109.109,217.157c1.635,0,3.089,0,4.646,0c0,12.036,0,23.954,0,35.987
			c-1.581,0-3.033,0-4.646,0C109.109,241.185,109.109,229.266,109.109,217.157z"/>
		<path fill-rule="evenodd" clip-rule="evenodd" d="M54.391,228.601c0,8.231,0,16.271,0,24.487c-1.428,0-2.773,0-4.271,0
			c0-8.115,0-16.218,0-24.487C51.467,228.601,52.812,228.601,54.391,228.601z"/>
		<path fill-rule="evenodd" clip-rule="evenodd" d="M51.514,224.259c-0.513-0.719-1.714-1.693-1.913-2.843
			c-0.291-1.687,1.062-2.751,2.711-2.737c1.516,0.012,2.606,0.916,2.646,2.618C54.999,223.061,54.109,224.022,51.514,224.259z"/>
	</g>
</g>
</svg>
